<svg width="182" height="72" viewBox="0 0 182 72" fill="none" xmlns="http://www.w3.org/2000/svg">
<path d="M3.024 34C2.76 34 2.544 33.916 2.376 33.748C2.208 33.556 2.124 33.34 2.124 33.1V9.34C2.124 9.076 2.208 8.86 2.376 8.692C2.544 8.524 2.76 8.44 3.024 8.44H7.272C7.536 8.44 7.752 8.524 7.92 8.692C8.088 8.86 8.172 9.076 8.172 9.34V33.1C8.172 33.34 8.088 33.556 7.92 33.748C7.752 33.916 7.536 34 7.272 34H3.024ZM10.5168 17.512C10.3008 17.512 10.1208 17.44 9.97678 17.296C9.85678 17.152 9.80878 16.948 9.83278 16.684L10.9128 9.664C10.9608 9.352 11.0808 9.076 11.2728 8.836C11.4888 8.572 11.8008 8.44 12.2088 8.44H16.4208C16.6128 8.44 16.7688 8.512 16.8888 8.656C17.0328 8.8 17.1048 8.968 17.1048 9.16C17.1048 9.304 17.0808 9.436 17.0328 9.556L14.3328 16.504C14.2368 16.744 14.0928 16.972 13.9008 17.188C13.7088 17.404 13.4088 17.512 13.0008 17.512H10.5168ZM22.1316 34.36C20.8356 34.36 19.6716 34.12 18.6396 33.64C17.6316 33.136 16.8276 32.464 16.2276 31.624C15.6276 30.784 15.3276 29.836 15.3276 28.78C15.3276 27.076 16.0236 25.732 17.4156 24.748C18.8076 23.74 20.6556 23.056 22.9596 22.696L27.4596 22.012V21.508C27.4596 20.644 27.2796 19.984 26.9196 19.528C26.5596 19.072 25.8996 18.844 24.9396 18.844C24.2676 18.844 23.7156 18.976 23.2836 19.24C22.8756 19.504 22.5516 19.864 22.3116 20.32C22.0956 20.632 21.7956 20.788 21.4116 20.788H17.3796C17.1156 20.788 16.9116 20.716 16.7676 20.572C16.6236 20.404 16.5636 20.212 16.5876 19.996C16.5876 19.564 16.7436 19.072 17.0556 18.52C17.3916 17.944 17.8956 17.38 18.5676 16.828C19.2396 16.276 20.1036 15.82 21.1596 15.46C22.2156 15.1 23.4996 14.92 25.0116 14.92C26.5476 14.92 27.8676 15.1 28.9716 15.46C30.0756 15.82 30.9756 16.324 31.6716 16.972C32.3676 17.62 32.8716 18.388 33.1836 19.276C33.5196 20.14 33.6876 21.1 33.6876 22.156V33.1C33.6876 33.34 33.5916 33.556 33.3996 33.748C33.2316 33.916 33.0276 34 32.7876 34H28.6116C28.3476 34 28.1316 33.916 27.9636 33.748C27.7956 33.556 27.7116 33.34 27.7116 33.1V31.84C27.3996 32.296 26.9796 32.716 26.4516 33.1C25.9236 33.484 25.2996 33.784 24.5796 34C23.8836 34.24 23.0676 34.36 22.1316 34.36ZM23.8236 30.256C24.5196 30.256 25.1436 30.112 25.6956 29.824C26.2716 29.512 26.7156 29.044 27.0276 28.42C27.3636 27.772 27.5316 26.968 27.5316 26.008V25.504L24.4716 26.044C23.3436 26.236 22.5156 26.536 21.9876 26.944C21.4836 27.328 21.2316 27.784 21.2316 28.312C21.2316 28.72 21.3516 29.068 21.5916 29.356C21.8316 29.644 22.1436 29.872 22.5276 30.04C22.9356 30.184 23.3676 30.256 23.8236 30.256ZM45.2053 34C43.6693 34 42.3373 33.76 41.2093 33.28C40.1053 32.776 39.2533 32.008 38.6533 30.976C38.0533 29.92 37.7533 28.564 37.7533 26.908V19.996H34.9453C34.6813 19.996 34.4533 19.912 34.2613 19.744C34.0933 19.576 34.0093 19.36 34.0093 19.096V16.18C34.0093 15.916 34.0933 15.7 34.2613 15.532C34.4533 15.364 34.6813 15.28 34.9453 15.28H37.7533V9.34C37.7533 9.076 37.8373 8.86 38.0053 8.692C38.1973 8.524 38.4133 8.44 38.6533 8.44H42.8293C43.0933 8.44 43.3093 8.524 43.4773 8.692C43.6453 8.86 43.7293 9.076 43.7293 9.34V15.28H48.2293C48.4933 15.28 48.7093 15.364 48.8773 15.532C49.0693 15.7 49.1653 15.916 49.1653 16.18V19.096C49.1653 19.36 49.0693 19.576 48.8773 19.744C48.7093 19.912 48.4933 19.996 48.2293 19.996H43.7293V26.404C43.7293 27.22 43.8853 27.868 44.1973 28.348C44.5093 28.828 45.0373 29.068 45.7813 29.068H48.5533C48.8173 29.068 49.0333 29.152 49.2013 29.32C49.3693 29.488 49.4533 29.704 49.4533 29.968V33.1C49.4533 33.34 49.3693 33.556 49.2013 33.748C49.0333 33.916 48.8173 34 48.5533 34H45.2053ZM59.094 34.36C56.262 34.36 54.006 33.592 52.326 32.056C50.646 30.52 49.77 28.24 49.698 25.216C49.698 25.048 49.698 24.832 49.698 24.568C49.698 24.304 49.698 24.1 49.698 23.956C49.77 22.06 50.19 20.44 50.958 19.096C51.75 17.728 52.83 16.696 54.198 16C55.59 15.28 57.21 14.92 59.058 14.92C61.17 14.92 62.91 15.34 64.278 16.18C65.67 17.02 66.714 18.16 67.41 19.6C68.106 21.04 68.454 22.684 68.454 24.532V25.396C68.454 25.66 68.37 25.876 68.202 26.044C68.034 26.212 67.818 26.296 67.554 26.296H56.034C56.034 26.32 56.034 26.356 56.034 26.404C56.034 26.452 56.034 26.5 56.034 26.548C56.058 27.244 56.178 27.88 56.394 28.456C56.634 29.032 56.97 29.488 57.402 29.824C57.858 30.16 58.41 30.328 59.058 30.328C59.538 30.328 59.934 30.256 60.246 30.112C60.582 29.944 60.858 29.764 61.074 29.572C61.29 29.356 61.458 29.176 61.578 29.032C61.794 28.768 61.962 28.612 62.082 28.564C62.226 28.492 62.442 28.456 62.73 28.456H67.194C67.434 28.456 67.626 28.528 67.77 28.672C67.938 28.816 68.01 29.008 67.986 29.248C67.962 29.656 67.758 30.148 67.374 30.724C66.99 31.3 66.426 31.876 65.682 32.452C64.962 33.004 64.05 33.46 62.946 33.82C61.842 34.18 60.558 34.36 59.094 34.36ZM56.034 22.732H62.118V22.66C62.118 21.868 61.998 21.196 61.758 20.644C61.542 20.068 61.194 19.624 60.714 19.312C60.258 19 59.706 18.844 59.058 18.844C58.434 18.844 57.894 19 57.438 19.312C56.982 19.624 56.634 20.068 56.394 20.644C56.154 21.196 56.034 21.868 56.034 22.66V22.732ZM70.749 34C70.485 34 70.269 33.916 70.101 33.748C69.933 33.556 69.849 33.34 69.849 33.1V9.34C69.849 9.076 69.933 8.86 70.101 8.692C70.269 8.524 70.485 8.44 70.749 8.44H74.997C75.261 8.44 75.477 8.524 75.645 8.692C75.813 8.86 75.897 9.076 75.897 9.34V33.1C75.897 33.34 75.813 33.556 75.645 33.748C75.477 33.916 75.261 34 74.997 34H70.749ZM80.3003 34C80.0363 34 79.8203 33.916 79.6523 33.748C79.4843 33.556 79.4003 33.34 79.4003 33.1V16.18C79.4003 15.916 79.4843 15.7 79.6523 15.532C79.8203 15.364 80.0363 15.28 80.3003 15.28H84.5483C84.8123 15.28 85.0283 15.364 85.1963 15.532C85.3643 15.7 85.4483 15.916 85.4483 16.18V33.1C85.4483 33.34 85.3643 33.556 85.1963 33.748C85.0283 33.916 84.8123 34 84.5483 34H80.3003ZM80.2643 12.58C80.0003 12.58 79.7843 12.496 79.6163 12.328C79.4483 12.16 79.3643 11.944 79.3643 11.68V8.44C79.3643 8.2 79.4483 7.996 79.6163 7.828C79.7843 7.636 80.0003 7.54 80.2643 7.54H84.5843C84.8243 7.54 85.0283 7.636 85.1963 7.828C85.3883 7.996 85.4843 8.2 85.4843 8.44V11.68C85.4843 11.944 85.3883 12.16 85.1963 12.328C85.0283 12.496 84.8243 12.58 84.5843 12.58H80.2643ZM96.5368 34.36C93.7048 34.36 91.4488 33.592 89.7688 32.056C88.0888 30.52 87.2128 28.24 87.1408 25.216C87.1408 25.048 87.1408 24.832 87.1408 24.568C87.1408 24.304 87.1408 24.1 87.1408 23.956C87.2128 22.06 87.6328 20.44 88.4008 19.096C89.1928 17.728 90.2728 16.696 91.6408 16C93.0328 15.28 94.6528 14.92 96.5008 14.92C98.6128 14.92 100.353 15.34 101.721 16.18C103.113 17.02 104.157 18.16 104.853 19.6C105.549 21.04 105.897 22.684 105.897 24.532V25.396C105.897 25.66 105.813 25.876 105.645 26.044C105.477 26.212 105.261 26.296 104.997 26.296H93.4768C93.4768 26.32 93.4768 26.356 93.4768 26.404C93.4768 26.452 93.4768 26.5 93.4768 26.548C93.5008 27.244 93.6208 27.88 93.8368 28.456C94.0768 29.032 94.4128 29.488 94.8448 29.824C95.3008 30.16 95.8528 30.328 96.5008 30.328C96.9808 30.328 97.3768 30.256 97.6888 30.112C98.0248 29.944 98.3008 29.764 98.5168 29.572C98.7328 29.356 98.9008 29.176 99.0208 29.032C99.2368 28.768 99.4048 28.612 99.5248 28.564C99.6688 28.492 99.8848 28.456 100.173 28.456H104.637C104.877 28.456 105.069 28.528 105.213 28.672C105.381 28.816 105.453 29.008 105.429 29.248C105.405 29.656 105.201 30.148 104.817 30.724C104.433 31.3 103.869 31.876 103.125 32.452C102.405 33.004 101.493 33.46 100.389 33.82C99.2848 34.18 98.0008 34.36 96.5368 34.36ZM93.4768 22.732H99.5608V22.66C99.5608 21.868 99.4408 21.196 99.2008 20.644C98.9848 20.068 98.6368 19.624 98.1568 19.312C97.7008 19 97.1488 18.844 96.5008 18.844C95.8768 18.844 95.3368 19 94.8808 19.312C94.4248 19.624 94.0768 20.068 93.8368 20.644C93.5968 21.196 93.4768 21.868 93.4768 22.66V22.732ZM108.192 34C107.928 34 107.712 33.916 107.544 33.748C107.376 33.556 107.292 33.34 107.292 33.1V16.18C107.292 15.94 107.376 15.736 107.544 15.568C107.712 15.376 107.928 15.28 108.192 15.28H112.332C112.596 15.28 112.812 15.376 112.98 15.568C113.172 15.736 113.268 15.94 113.268 16.18V17.62C113.892 16.876 114.648 16.3 115.536 15.892C116.448 15.484 117.468 15.28 118.596 15.28H120.18C120.444 15.28 120.66 15.364 120.828 15.532C120.996 15.7 121.08 15.916 121.08 16.18V19.888C121.08 20.128 120.996 20.344 120.828 20.536C120.66 20.704 120.444 20.788 120.18 20.788H116.688C115.704 20.788 114.936 21.064 114.384 21.616C113.856 22.144 113.592 22.9 113.592 23.884V33.1C113.592 33.34 113.496 33.556 113.304 33.748C113.136 33.916 112.92 34 112.656 34H108.192Z" fill="#2A3081"/>
<path d="M3.42 63C3.156 63 2.94 62.916 2.772 62.748C2.604 62.556 2.52 62.34 2.52 62.1V38.7C2.52 38.436 2.604 38.22 2.772 38.052C2.94 37.884 3.156 37.8 3.42 37.8H7.236C7.644 37.8 7.932 37.896 8.1 38.088C8.292 38.256 8.412 38.388 8.46 38.484L17.244 52.308V38.7C17.244 38.436 17.328 38.22 17.496 38.052C17.664 37.884 17.88 37.8 18.144 37.8H22.464C22.728 37.8 22.944 37.884 23.112 38.052C23.28 38.22 23.364 38.436 23.364 38.7V62.064C23.364 62.328 23.28 62.556 23.112 62.748C22.944 62.916 22.728 63 22.464 63H18.612C18.228 63 17.94 62.904 17.748 62.712C17.58 62.52 17.472 62.388 17.424 62.316L8.64 48.996V62.1C8.64 62.34 8.556 62.556 8.388 62.748C8.22 62.916 8.004 63 7.74 63H3.42ZM32.895 63.36C31.527 63.36 30.303 63.048 29.223 62.424C28.167 61.8 27.339 60.888 26.739 59.688C26.139 58.464 25.839 56.976 25.839 55.224V45.18C25.839 44.916 25.923 44.7 26.091 44.532C26.259 44.364 26.475 44.28 26.739 44.28H31.239C31.503 44.28 31.719 44.364 31.887 44.532C32.079 44.7 32.175 44.916 32.175 45.18V55.008C32.175 57.36 33.219 58.536 35.307 58.536C36.291 58.536 37.071 58.236 37.647 57.636C38.247 57.012 38.547 56.136 38.547 55.008V45.18C38.547 44.916 38.631 44.7 38.799 44.532C38.967 44.364 39.183 44.28 39.447 44.28H43.947C44.211 44.28 44.427 44.364 44.595 44.532C44.763 44.7 44.847 44.916 44.847 45.18V62.1C44.847 62.34 44.763 62.556 44.595 62.748C44.427 62.916 44.211 63 43.947 63H39.771C39.531 63 39.315 62.916 39.123 62.748C38.955 62.556 38.871 62.34 38.871 62.1V60.732C38.247 61.596 37.431 62.256 36.423 62.712C35.439 63.144 34.263 63.36 32.895 63.36ZM48.0015 63C47.7375 63 47.5215 62.916 47.3535 62.748C47.1855 62.556 47.1015 62.34 47.1015 62.1V45.18C47.1015 44.916 47.1855 44.7 47.3535 44.532C47.5215 44.364 47.7375 44.28 48.0015 44.28H51.9255C52.1895 44.28 52.4055 44.364 52.5735 44.532C52.7415 44.7 52.8255 44.916 52.8255 45.18V46.404C53.3055 45.756 53.9775 45.192 54.8415 44.712C55.7055 44.208 56.7255 43.944 57.9015 43.92C60.6855 43.848 62.5935 44.88 63.6255 47.016C64.1775 46.104 64.9575 45.36 65.9655 44.784C66.9975 44.208 68.1255 43.92 69.3495 43.92C70.5975 43.92 71.7135 44.208 72.6975 44.784C73.7055 45.336 74.5095 46.2 75.1095 47.376C75.7095 48.528 76.0095 50.028 76.0095 51.876V62.1C76.0095 62.34 75.9255 62.556 75.7575 62.748C75.5895 62.916 75.3735 63 75.1095 63H70.9335C70.6695 63 70.4415 62.916 70.2495 62.748C70.0815 62.556 69.9975 62.34 69.9975 62.1V52.128C69.9975 51.288 69.8775 50.628 69.6375 50.148C69.3975 49.644 69.0735 49.284 68.6655 49.068C68.2575 48.852 67.7895 48.744 67.2615 48.744C66.8295 48.744 66.3975 48.852 65.9655 49.068C65.5575 49.284 65.2215 49.644 64.9575 50.148C64.7175 50.628 64.5975 51.288 64.5975 52.128V62.1C64.5975 62.34 64.5135 62.556 64.3455 62.748C64.1775 62.916 63.9615 63 63.6975 63H59.5215C59.2575 63 59.0415 62.916 58.8735 62.748C58.7055 62.556 58.6215 62.34 58.6215 62.1V52.128C58.6215 51.288 58.4895 50.628 58.2255 50.148C57.9615 49.644 57.6255 49.284 57.2175 49.068C56.8095 48.852 56.3655 48.744 55.8855 48.744C55.4295 48.744 54.9855 48.852 54.5535 49.068C54.1455 49.284 53.8095 49.644 53.5455 50.148C53.3055 50.628 53.1855 51.276 53.1855 52.092V62.1C53.1855 62.34 53.0895 62.556 52.8975 62.748C52.7295 62.916 52.5255 63 52.2855 63H48.0015ZM86.7381 63.36C83.9061 63.36 81.6501 62.592 79.9701 61.056C78.2901 59.52 77.4141 57.24 77.3421 54.216C77.3421 54.048 77.3421 53.832 77.3421 53.568C77.3421 53.304 77.3421 53.1 77.3421 52.956C77.4141 51.06 77.8341 49.44 78.6021 48.096C79.3941 46.728 80.4741 45.696 81.8421 45C83.2341 44.28 84.8541 43.92 86.7021 43.92C88.8141 43.92 90.5541 44.34 91.9221 45.18C93.3141 46.02 94.3581 47.16 95.0541 48.6C95.7501 50.04 96.0981 51.684 96.0981 53.532V54.396C96.0981 54.66 96.0141 54.876 95.8461 55.044C95.6781 55.212 95.4621 55.296 95.1981 55.296H83.6781C83.6781 55.32 83.6781 55.356 83.6781 55.404C83.6781 55.452 83.6781 55.5 83.6781 55.548C83.7021 56.244 83.8221 56.88 84.0381 57.456C84.2781 58.032 84.6141 58.488 85.0461 58.824C85.5021 59.16 86.0541 59.328 86.7021 59.328C87.1821 59.328 87.5781 59.256 87.8901 59.112C88.2261 58.944 88.5021 58.764 88.7181 58.572C88.9341 58.356 89.1021 58.176 89.2221 58.032C89.4381 57.768 89.6061 57.612 89.7261 57.564C89.8701 57.492 90.0861 57.456 90.3741 57.456H94.8381C95.0781 57.456 95.2701 57.528 95.4141 57.672C95.5821 57.816 95.6541 58.008 95.6301 58.248C95.6061 58.656 95.4021 59.148 95.0181 59.724C94.6341 60.3 94.0701 60.876 93.3261 61.452C92.6061 62.004 91.6941 62.46 90.5901 62.82C89.4861 63.18 88.2021 63.36 86.7381 63.36ZM83.6781 51.732H89.7621V51.66C89.7621 50.868 89.6421 50.196 89.4021 49.644C89.1861 49.068 88.8381 48.624 88.3581 48.312C87.9021 48 87.3501 47.844 86.7021 47.844C86.0781 47.844 85.5381 48 85.0821 48.312C84.6261 48.624 84.2781 49.068 84.0381 49.644C83.7981 50.196 83.6781 50.868 83.6781 51.66V51.732ZM84.6141 41.58C84.2301 41.58 84.0381 41.388 84.0381 41.004C84.0381 40.812 84.0981 40.656 84.2181 40.536L87.3861 36.684C87.6261 36.396 87.8301 36.216 87.9981 36.144C88.1661 36.048 88.4061 36 88.7181 36H93.4701C93.9261 36 94.1541 36.24 94.1541 36.72C94.1541 36.888 94.0941 37.032 93.9741 37.152L89.1861 41.076C88.9941 41.244 88.8021 41.376 88.6101 41.472C88.4181 41.544 88.1541 41.58 87.8181 41.58H84.6141ZM98.3931 63C98.1291 63 97.9131 62.916 97.7451 62.748C97.5771 62.556 97.4931 62.34 97.4931 62.1V45.18C97.4931 44.94 97.5771 44.736 97.7451 44.568C97.9131 44.376 98.1291 44.28 98.3931 44.28H102.533C102.797 44.28 103.013 44.376 103.181 44.568C103.373 44.736 103.469 44.94 103.469 45.18V46.62C104.093 45.876 104.849 45.3 105.737 44.892C106.649 44.484 107.669 44.28 108.797 44.28H110.381C110.645 44.28 110.861 44.364 111.029 44.532C111.197 44.7 111.281 44.916 111.281 45.18V48.888C111.281 49.128 111.197 49.344 111.029 49.536C110.861 49.704 110.645 49.788 110.381 49.788H106.889C105.905 49.788 105.137 50.064 104.585 50.616C104.057 51.144 103.793 51.9 103.793 52.884V62.1C103.793 62.34 103.697 62.556 103.505 62.748C103.337 62.916 103.121 63 102.857 63H98.3931ZM112.761 63C112.497 63 112.281 62.916 112.113 62.748C111.945 62.556 111.861 62.34 111.861 62.1V45.18C111.861 44.916 111.945 44.7 112.113 44.532C112.281 44.364 112.497 44.28 112.761 44.28H117.009C117.273 44.28 117.489 44.364 117.657 44.532C117.825 44.7 117.909 44.916 117.909 45.18V62.1C117.909 62.34 117.825 62.556 117.657 62.748C117.489 62.916 117.273 63 117.009 63H112.761ZM112.725 41.58C112.461 41.58 112.245 41.496 112.077 41.328C111.909 41.16 111.825 40.944 111.825 40.68V37.44C111.825 37.2 111.909 36.996 112.077 36.828C112.245 36.636 112.461 36.54 112.725 36.54H117.045C117.285 36.54 117.489 36.636 117.657 36.828C117.849 36.996 117.945 37.2 117.945 37.44V40.68C117.945 40.944 117.849 41.16 117.657 41.328C117.489 41.496 117.285 41.58 117.045 41.58H112.725ZM133.358 69.84C133.094 69.84 132.878 69.744 132.71 69.552C132.542 69.384 132.458 69.18 132.458 68.94V60.948C131.906 61.716 131.186 62.316 130.298 62.748C129.41 63.156 128.378 63.36 127.202 63.36C126.026 63.36 124.97 63.168 124.034 62.784C123.098 62.376 122.306 61.812 121.658 61.092C121.01 60.372 120.506 59.496 120.146 58.464C119.786 57.432 119.582 56.268 119.534 54.972C119.51 54.492 119.498 54.048 119.498 53.64C119.498 53.232 119.51 52.788 119.534 52.308C119.606 50.964 119.822 49.776 120.182 48.744C120.542 47.712 121.046 46.836 121.694 46.116C122.342 45.396 123.122 44.856 124.034 44.496C124.97 44.112 126.026 43.92 127.202 43.92C128.546 43.92 129.674 44.172 130.586 44.676C131.498 45.156 132.23 45.756 132.782 46.476V45.18C132.782 44.916 132.866 44.7 133.034 44.532C133.226 44.364 133.442 44.28 133.682 44.28H137.75C138.014 44.28 138.23 44.364 138.398 44.532C138.566 44.7 138.65 44.916 138.65 45.18V68.94C138.65 69.18 138.566 69.384 138.398 69.552C138.23 69.744 138.014 69.84 137.75 69.84H133.358ZM129.146 58.536C129.914 58.536 130.526 58.38 130.982 58.068C131.462 57.732 131.822 57.312 132.062 56.808C132.302 56.28 132.434 55.716 132.458 55.116C132.506 54.636 132.53 54.18 132.53 53.748C132.53 53.316 132.506 52.872 132.458 52.416C132.434 51.768 132.314 51.168 132.098 50.616C131.882 50.064 131.534 49.62 131.054 49.284C130.574 48.924 129.938 48.744 129.146 48.744C128.354 48.744 127.718 48.912 127.238 49.248C126.782 49.584 126.446 50.04 126.23 50.616C126.038 51.192 125.918 51.828 125.87 52.524C125.822 53.268 125.822 54.012 125.87 54.756C125.918 55.452 126.038 56.088 126.23 56.664C126.446 57.24 126.782 57.696 127.238 58.032C127.718 58.368 128.354 58.536 129.146 58.536ZM147.788 63.36C146.42 63.36 145.196 63.048 144.116 62.424C143.06 61.8 142.232 60.888 141.632 59.688C141.032 58.464 140.732 56.976 140.732 55.224V45.18C140.732 44.916 140.816 44.7 140.984 44.532C141.152 44.364 141.368 44.28 141.632 44.28H146.132C146.396 44.28 146.612 44.364 146.78 44.532C146.972 44.7 147.068 44.916 147.068 45.18V55.008C147.068 57.36 148.112 58.536 150.2 58.536C151.184 58.536 151.964 58.236 152.54 57.636C153.14 57.012 153.44 56.136 153.44 55.008V45.18C153.44 44.916 153.524 44.7 153.692 44.532C153.86 44.364 154.076 44.28 154.34 44.28H158.84C159.104 44.28 159.32 44.364 159.488 44.532C159.656 44.7 159.74 44.916 159.74 45.18V62.1C159.74 62.34 159.656 62.556 159.488 62.748C159.32 62.916 159.104 63 158.84 63H154.664C154.424 63 154.208 62.916 154.016 62.748C153.848 62.556 153.764 62.34 153.764 62.1V60.732C153.14 61.596 152.324 62.256 151.316 62.712C150.332 63.144 149.156 63.36 147.788 63.36ZM170.635 63.36C167.803 63.36 165.547 62.592 163.867 61.056C162.187 59.52 161.311 57.24 161.239 54.216C161.239 54.048 161.239 53.832 161.239 53.568C161.239 53.304 161.239 53.1 161.239 52.956C161.311 51.06 161.731 49.44 162.499 48.096C163.291 46.728 164.371 45.696 165.739 45C167.131 44.28 168.751 43.92 170.599 43.92C172.711 43.92 174.451 44.34 175.819 45.18C177.211 46.02 178.255 47.16 178.951 48.6C179.647 50.04 179.995 51.684 179.995 53.532V54.396C179.995 54.66 179.911 54.876 179.743 55.044C179.575 55.212 179.359 55.296 179.095 55.296H167.575C167.575 55.32 167.575 55.356 167.575 55.404C167.575 55.452 167.575 55.5 167.575 55.548C167.599 56.244 167.719 56.88 167.935 57.456C168.175 58.032 168.511 58.488 168.943 58.824C169.399 59.16 169.951 59.328 170.599 59.328C171.079 59.328 171.475 59.256 171.787 59.112C172.123 58.944 172.399 58.764 172.615 58.572C172.831 58.356 172.999 58.176 173.119 58.032C173.335 57.768 173.503 57.612 173.623 57.564C173.767 57.492 173.983 57.456 174.271 57.456H178.735C178.975 57.456 179.167 57.528 179.311 57.672C179.479 57.816 179.551 58.008 179.527 58.248C179.503 58.656 179.299 59.148 178.915 59.724C178.531 60.3 177.967 60.876 177.223 61.452C176.503 62.004 175.591 62.46 174.487 62.82C173.383 63.18 172.099 63.36 170.635 63.36ZM167.575 51.732H173.659V51.66C173.659 50.868 173.539 50.196 173.299 49.644C173.083 49.068 172.735 48.624 172.255 48.312C171.799 48 171.247 47.844 170.599 47.844C169.975 47.844 169.435 48 168.979 48.312C168.523 48.624 168.175 49.068 167.935 49.644C167.695 50.196 167.575 50.868 167.575 51.66V51.732Z" fill="#2A3081"/>
</svg>
